<?xml version="1.0" encoding="utf-8"?>
<!-- Generator: Adobe Illustrator 16.0.0, SVG Export Plug-In . SVG Version: 6.00 Build 0)  -->
<!DOCTYPE svg PUBLIC "-//W3C//DTD SVG 1.1//EN" "http://www.w3.org/Graphics/SVG/1.1/DTD/svg11.dtd">
<svg version="1.1" id="Layer_1" xmlns="http://www.w3.org/2000/svg" xmlns:xlink="http://www.w3.org/1999/xlink" x="0px" y="0px"
	 width="1800px" height="428.411px" viewBox="0 0 1800 428.411" enable-background="new 0 0 1800 428.411" xml:space="preserve">
<polygon fill="#B8F0FF" points="-262.337,-63.982 1812.908,-4.578 1806.434,215.719 -268.812,156.315 "/>
<path opacity="0.7" fill="#94C1C4" enable-background="new    " d="M-262.944-43.318c0,0,579.356,17.018,778.104,52.356
	c198.746,35.338,317.325,105.779,666.039,114.697c348.713,8.92,629.269-45.313,629.269-45.313l-4.065,138.314l-2075.304-57.343
	L-262.944-43.318z"/>
<path fill="#8BB1B2" d="M-266.735,75.52c0,0,363.553,8.336,700.581,32.941c337.027,24.606,344.294,60.255,610.797,66.345
	c266.503,6.088,438.901,26.185,438.901,26.185l-1752.733-40.881L-266.735,75.52z"/>
<path fill="#404041" d="M449.831,161.602c-0.106,3.64-3.142,6.505-6.783,6.399l-4.682-0.135c-3.64-0.105-6.504-3.141-6.399-6.782
	l0.979-33.81c0.106-3.64,3.143-6.505,6.782-6.399l4.682,0.136c3.642,0.105,6.507,3.141,6.401,6.78L449.831,161.602z"/>
<path fill="#404041" d="M424.575,165.695c-0.101,3.492-3.015,6.243-6.508,6.142l-4.492-0.13c-3.494-0.102-6.242-3.016-6.141-6.509
	l0.941-32.446c0.102-3.493,3.014-6.242,6.507-6.141l4.492,0.131c3.493,0.102,6.242,3.014,6.141,6.507L424.575,165.695z"/>
<path fill="#6B3E45" d="M461.553,142.522l15.914-8.27l46.182,1.339l15.392,7.681l-0.364,12.538c0,0-38.625,18.328-61.672,15.905
	C453.958,169.292,461.553,142.522,461.553,142.522z"/>
<polygon fill="#562932" points="523.647,135.592 503.423,143.737 502.898,161.847 538.471,162.879 539.041,143.272 "/>
<ellipse transform="matrix(0.029 -0.9996 0.9996 0.029 397.4227 722.3592)" fill="#5D7F39" cx="570.506" cy="156.628" rx="10.926" ry="4.2"/>
<ellipse transform="matrix(0.029 -0.9996 0.9996 0.029 413.2012 739.6035)" fill="#5D7F39" cx="587.297" cy="157.115" rx="10.926" ry="2.81"/>
<path fill="#5D7F39" d="M563.624,156.421c-0.375,6.022-1.926,10.828-3.461,10.732c-1.538-0.097-1.936-5.022-1.56-11.045
	c0.376-6.022,1.381-10.859,2.919-10.765C563.058,145.441,563.999,150.399,563.624,156.421z"/>
<path fill="#7BC14B" d="M1799.744,553.434l-2083.071-59.628l10.786-366.954c0,0,58.496,3.546,197.764,5.661
	c139.272,2.113,435.521,24.335,578.587,30.304c143.063,5.969,437.871-11.202,669.502-5.821
	c231.633,5.382,386.104,22.295,386.104,22.295l251.113,7.188L1799.744,553.434L1799.744,553.434z"/>
<path fill="#66A82C" d="M-270.313,207.413c94.825-4.157,155.078-24.834,315.479-8.999c160.399,15.834,468.35,43.385,583.769,44.816
	c115.417,1.432,119.07-23.985,261.737-19.901c88.634,2.536,113.544-2.139,205.007,11.4c141.96,21.018,114.78,41.387,303.493,64.9
	c188.716,23.515,403.883,30.923,403.883,30.923l1.2,223.008l-2093.39-59.921L-270.313,207.413z"/>
<g>
	<path fill="#F4D75C" d="M1052.289,155.959c0,0-80.592,44.349-187.858,81.621c-107.268,37.273,51.579,75.429-105.316,85.788
		c-156.891,10.362-373.344-34.437-450.609,11.162c-77.265,45.597,130.877,98.852,433.142,104.514
		c302.268,5.66,354.861-0.27,288.312,92.856l247.298,7.173c0,0-24.311-95.141-101.133-111.037
		c-192.561-39.841-543.632-25.708-662.568-49.659c-118.932-23.954-222.878-44.983,102.389-31.203
		c325.554,13.794,254.581-53.188,237.259-70.157c-18.955-18.568,20.437-25.482,91.185-61.97
		c76.411-39.409,111.235-58.341,111.235-58.341"/>
</g>
<path fill="#FFFFFF" d="M401.179,8.465C413.567-6.52,435.846-2.397,468.92-1.438c33.074,0.96,38.521,7.034,38.521,7.034
	s4.389-22.094,51.969-4.442c47.583,17.652,56.527,32.277,56.527,32.277s5.499-17.329,37.019-5.797
	c31.52,11.533,40.962,30.543-21.572,33.103c-62.533,2.559-190.595,3.215-194.401-16.256
	C436.984,44.481,362.339,55.432,401.179,8.465z"/>
<path fill="#FFFFFF" d="M823.454-2.7c5.505-9.707,17.873-16.868,37.116-12.336c19.243,4.534,25.42,14.15,25.42,14.15
	s1.714-7.726,26.018-6.362c24.301,1.364,24.114,7.816,24.114,7.816s27.164-11.718,36.355-3.213
	c9.192,8.509,15.824,19.629-33.384,20.686C889.882,19.097,809.317,22.225,823.454-2.7z"/>
<path fill="#EDECEE" d="M531.706,102.749c0.057-21.566,39.805-15.709,57.776-10.815c17.971,4.893,30.841,13.385,30.841,13.385
	s-3.565-6.266,22.04-6.189c25.607,0.077,27.685,14.503,27.685,14.503S531.579,150.214,531.706,102.749z"/>
<circle fill="#FFF766" cx="1110.83" cy="46.179" r="47.339"/>
<path fill="#FFFFFF" d="M1182.147,36.48c23.946-9.104,65.311,0.607,82.163,10.724c16.854,10.113,113.372,32.525-15.142,43.487
	c-128.515,10.963-143.592-4.172-116.466-38.498C1159.827,17.868,1182.147,36.48,1182.147,36.48z"/>
<path fill="#2F688E" d="M324.206,62.719c0.093-0.36,0.229-0.709,0.382-1.051c0.153-0.341,0.337-0.67,0.546-0.997
	c0.218-0.315,0.466-0.622,0.779-0.898c0.156-0.138,0.334-0.264,0.537-0.368c0.197-0.109,0.43-0.188,0.683-0.217
	c0.123-0.025,0.256-0.011,0.385-0.011c0.125,0.012,0.255,0.041,0.381,0.071c0.116,0.044,0.24,0.087,0.349,0.144
	c0.104,0.061,0.21,0.123,0.309,0.19l0.267,0.22c0.083,0.076,0.152,0.159,0.228,0.237c0.151,0.161,0.263,0.333,0.388,0.502
	c0.102,0.172,0.219,0.346,0.306,0.522c0.086,0.176,0.188,0.352,0.257,0.53c0.07,0.179,0.153,0.357,0.217,0.537l0.19,0.541
	l-1.235-0.128c0.107-0.18,0.203-0.327,0.313-0.484c0.105-0.154,0.218-0.305,0.334-0.449c0.236-0.291,0.485-0.575,0.77-0.834
	c0.283-0.261,0.593-0.504,0.955-0.703c0.18-0.097,0.373-0.189,0.582-0.251c0.104-0.032,0.208-0.061,0.322-0.077
	c0.109-0.021,0.221-0.035,0.336-0.036c0.228-0.011,0.463,0.027,0.679,0.095c0.218,0.067,0.418,0.172,0.589,0.299
	c0.092,0.058,0.164,0.131,0.239,0.201c0.08,0.068,0.149,0.142,0.21,0.219c0.132,0.149,0.239,0.309,0.339,0.471
	c0.185,0.331,0.335,0.665,0.442,1.009c0.048,0.174,0.105,0.344,0.145,0.519c0.033,0.176,0.071,0.349,0.101,0.524
	c-0.195-0.3-0.377-0.598-0.576-0.879l-0.305-0.409c-0.109-0.127-0.214-0.256-0.33-0.37c-0.115-0.11-0.225-0.227-0.348-0.314
	c-0.058-0.05-0.12-0.09-0.184-0.125c-0.063-0.035-0.121-0.078-0.186-0.099c-0.252-0.108-0.49-0.14-0.726-0.09
	c-0.059,0.007-0.118,0.021-0.178,0.045c-0.059,0.016-0.119,0.044-0.178,0.072c-0.118,0.055-0.239,0.125-0.356,0.207
	c-0.235,0.166-0.46,0.372-0.674,0.6c-0.211,0.229-0.417,0.474-0.607,0.736c-0.094,0.133-0.189,0.262-0.279,0.396
	c-0.088,0.133-0.181,0.278-0.25,0.398l-0.745,1.295l-0.491-1.424l-0.169-0.486c-0.054-0.165-0.125-0.318-0.185-0.476
	c-0.06-0.162-0.135-0.307-0.2-0.459c-0.066-0.156-0.153-0.288-0.225-0.433c-0.084-0.129-0.16-0.272-0.25-0.383
	c-0.046-0.055-0.09-0.117-0.136-0.168l-0.141-0.144l-0.143-0.114c-0.049-0.032-0.098-0.051-0.147-0.083
	c-0.049-0.015-0.097-0.038-0.149-0.053c-0.05-0.001-0.102-0.028-0.16-0.02c-0.055,0.001-0.114-0.003-0.175,0.012
	c-0.061,0.005-0.126,0.021-0.19,0.043c-0.132,0.037-0.266,0.108-0.405,0.182c-0.273,0.155-0.542,0.371-0.793,0.609
	c-0.13,0.117-0.256,0.24-0.379,0.367l-0.363,0.397C324.669,62.146,324.437,62.429,324.206,62.719z"/>
<path fill="#2F5F7F" d="M403.397,83.909c0.165-0.365,0.373-0.71,0.602-1.041c0.23-0.332,0.494-0.644,0.784-0.938
	c0.145-0.147,0.303-0.285,0.47-0.413c0.165-0.132,0.341-0.256,0.529-0.365c0.092-0.058,0.191-0.108,0.291-0.154
	c0.099-0.05,0.204-0.089,0.312-0.128c0.104-0.042,0.215-0.072,0.328-0.099c0.113-0.032,0.228-0.045,0.348-0.059
	c0.115-0.02,0.236-0.017,0.356-0.017c0.12-0.003,0.24,0.014,0.36,0.032c0.122,0.013,0.238,0.046,0.353,0.081
	c0.119,0.03,0.231,0.074,0.338,0.124c0.225,0.09,0.422,0.217,0.613,0.349l0.271,0.212c0.087,0.072,0.162,0.153,0.245,0.229
	c0.17,0.152,0.292,0.331,0.438,0.497c0.13,0.172,0.251,0.349,0.371,0.526c0.106,0.183,0.215,0.364,0.315,0.55l0.278,0.558
	l-1.053-0.125c0.147-0.181,0.278-0.322,0.423-0.474c0.143-0.147,0.288-0.294,0.442-0.43c0.307-0.272,0.629-0.532,0.982-0.757
	c0.177-0.113,0.357-0.22,0.546-0.316c0.189-0.099,0.385-0.185,0.589-0.258c0.1-0.039,0.204-0.07,0.308-0.101
	c0.104-0.034,0.212-0.06,0.32-0.079c0.108-0.022,0.218-0.041,0.329-0.049c0.11-0.014,0.221-0.025,0.334-0.023
	c0.111-0.001,0.223-0.002,0.336,0.013c0.112,0.013,0.224,0.021,0.334,0.049c0.22,0.041,0.431,0.114,0.635,0.204l0.292,0.149
	l0.27,0.181c0.091,0.056,0.165,0.133,0.249,0.199c0.08,0.068,0.16,0.135,0.227,0.217l0.208,0.229l0.181,0.245
	c0.127,0.158,0.22,0.339,0.323,0.507c0.091,0.177,0.174,0.357,0.258,0.534c0.068,0.186,0.139,0.368,0.201,0.552
	c-0.125-0.152-0.242-0.307-0.361-0.457c-0.127-0.144-0.249-0.291-0.377-0.43c-0.139-0.127-0.256-0.276-0.4-0.391l-0.209-0.179
	l-0.221-0.156c-0.071-0.054-0.144-0.103-0.224-0.145c-0.075-0.041-0.146-0.096-0.228-0.125l-0.231-0.103l-0.24-0.074
	c-0.161-0.035-0.319-0.067-0.48-0.075c-0.161-0.011-0.321-0.004-0.48,0.021c-0.08,0.006-0.16,0.022-0.238,0.042
	c-0.081,0.017-0.159,0.04-0.238,0.067c-0.158,0.045-0.312,0.108-0.464,0.181c-0.154,0.069-0.303,0.156-0.451,0.243
	c-0.148,0.088-0.293,0.187-0.435,0.291c-0.282,0.208-0.558,0.438-0.814,0.687c-0.129,0.125-0.258,0.25-0.38,0.381
	c-0.122,0.128-0.247,0.273-0.34,0.39l-0.616,0.776l-0.439-0.902l-0.241-0.5l-0.268-0.479c-0.095-0.151-0.191-0.303-0.292-0.448
	c-0.109-0.135-0.208-0.286-0.325-0.404c-0.058-0.061-0.112-0.129-0.17-0.185l-0.186-0.165c-0.128-0.095-0.252-0.198-0.39-0.267
	c-0.067-0.04-0.137-0.074-0.208-0.098c-0.07-0.029-0.14-0.059-0.215-0.071c-0.071-0.02-0.146-0.043-0.225-0.046
	c-0.075-0.011-0.151-0.023-0.231-0.018c-0.078-0.002-0.158-0.002-0.239,0.01c-0.079,0.008-0.161,0.016-0.243,0.037
	c-0.164,0.031-0.329,0.084-0.495,0.147c-0.167,0.061-0.331,0.138-0.493,0.225c-0.162,0.086-0.319,0.187-0.477,0.291
	c-0.319,0.203-0.62,0.444-0.917,0.696C403.963,83.353,403.678,83.624,403.397,83.909z"/>
<path fill="#26A9E0" d="M603.748,9.083c0.159-0.45,0.38-0.876,0.63-1.29c0.25-0.411,0.549-0.796,0.878-1.17
	c0.339-0.364,0.723-0.707,1.178-0.99c0.226-0.145,0.472-0.268,0.739-0.367c0.263-0.104,0.549-0.184,0.85-0.218
	c0.296-0.039,0.609-0.041,0.917,0.003c0.156,0.015,0.304,0.055,0.456,0.098c0.151,0.037,0.296,0.088,0.435,0.152
	c0.288,0.109,0.54,0.268,0.784,0.432c0.234,0.172,0.459,0.352,0.651,0.548c0.215,0.188,0.366,0.404,0.547,0.609
	c0.161,0.211,0.31,0.423,0.458,0.638c0.13,0.223,0.263,0.442,0.385,0.665l0.335,0.672l-1.861-0.221
	c0.188-0.229,0.342-0.395,0.519-0.579c0.174-0.179,0.347-0.354,0.536-0.517c0.375-0.327,0.768-0.64,1.203-0.909
	c0.432-0.27,0.896-0.512,1.404-0.684c0.25-0.087,0.512-0.166,0.784-0.21c0.269-0.051,0.551-0.079,0.832-0.074
	c0.28-0.003,0.567,0.035,0.841,0.097c0.277,0.059,0.542,0.157,0.792,0.276l0.361,0.197l0.325,0.234
	c0.202,0.17,0.403,0.338,0.563,0.536c0.167,0.191,0.313,0.392,0.443,0.6c0.144,0.198,0.245,0.418,0.353,0.63
	c0.101,0.217,0.184,0.438,0.271,0.655c0.064,0.227,0.133,0.448,0.188,0.675c-0.165-0.167-0.316-0.339-0.469-0.505
	c-0.163-0.159-0.315-0.323-0.478-0.473c-0.176-0.137-0.318-0.3-0.495-0.42c-0.166-0.134-0.336-0.253-0.513-0.354
	c-0.169-0.109-0.349-0.19-0.522-0.266l-0.261-0.099l-0.262-0.066c-0.35-0.065-0.688-0.067-1.025-0.002
	c-0.668,0.127-1.333,0.493-1.958,0.965c-0.308,0.241-0.616,0.499-0.903,0.785c-0.141,0.14-0.286,0.284-0.424,0.432
	c-0.133,0.141-0.28,0.312-0.375,0.433l-1.087,1.384l-0.775-1.607l-0.273-0.566l-0.295-0.538c-0.207-0.346-0.426-0.676-0.668-0.948
	c-0.116-0.146-0.241-0.265-0.368-0.382c-0.13-0.102-0.256-0.215-0.391-0.286c-0.065-0.046-0.133-0.083-0.204-0.109
	c-0.07-0.032-0.14-0.065-0.211-0.081c-0.142-0.051-0.293-0.081-0.455-0.088c-0.162-0.011-0.331-0.006-0.51,0.024
	c-0.177,0.023-0.359,0.072-0.546,0.134c-0.187,0.057-0.375,0.137-0.561,0.226c-0.192,0.087-0.379,0.188-0.564,0.299
	c-0.381,0.211-0.745,0.473-1.112,0.744C604.466,8.477,604.11,8.77,603.748,9.083z"/>
<path fill="#26A9E0" d="M1078.106,35.088c0.16-0.45,0.381-0.876,0.631-1.288c0.25-0.413,0.545-0.797,0.877-1.169
	c0.337-0.366,0.72-0.708,1.178-0.991c0.226-0.146,0.474-0.27,0.738-0.369c0.263-0.103,0.549-0.183,0.85-0.215
	c0.298-0.041,0.611-0.042,0.916,0.002c0.16,0.014,0.307,0.055,0.456,0.096c0.155,0.037,0.296,0.089,0.436,0.153
	c0.29,0.11,0.542,0.268,0.785,0.432c0.234,0.172,0.458,0.351,0.651,0.548c0.215,0.188,0.365,0.402,0.547,0.609
	c0.161,0.208,0.311,0.425,0.457,0.639c0.13,0.22,0.265,0.441,0.384,0.664l0.336,0.671l-1.861-0.221
	c0.19-0.229,0.342-0.396,0.518-0.579c0.174-0.178,0.349-0.354,0.54-0.516c0.372-0.325,0.766-0.64,1.199-0.909
	c0.433-0.271,0.896-0.514,1.405-0.685c0.252-0.086,0.511-0.165,0.782-0.21c0.271-0.051,0.551-0.076,0.833-0.074
	c0.279-0.003,0.564,0.037,0.839,0.097c0.278,0.059,0.545,0.158,0.791,0.276l0.361,0.197l0.328,0.233
	c0.201,0.17,0.4,0.34,0.561,0.537c0.168,0.19,0.314,0.391,0.445,0.599c0.144,0.2,0.242,0.419,0.354,0.631
	c0.098,0.218,0.182,0.439,0.266,0.656c0.067,0.227,0.138,0.448,0.19,0.674c-0.165-0.167-0.314-0.339-0.47-0.505
	c-0.16-0.16-0.313-0.323-0.479-0.473c-0.174-0.137-0.316-0.3-0.492-0.421c-0.164-0.132-0.336-0.251-0.514-0.352
	c-0.169-0.11-0.349-0.191-0.523-0.268l-0.26-0.098l-0.261-0.065c-0.352-0.067-0.688-0.066-1.025-0.001
	c-0.672,0.125-1.337,0.491-1.958,0.964c-0.311,0.24-0.615,0.498-0.904,0.784c-0.142,0.142-0.286,0.284-0.422,0.433
	c-0.135,0.141-0.28,0.312-0.375,0.433l-1.091,1.384l-0.774-1.607l-0.273-0.568l-0.298-0.539c-0.203-0.342-0.423-0.675-0.666-0.946
	c-0.112-0.147-0.24-0.266-0.366-0.384c-0.131-0.101-0.255-0.214-0.392-0.286c-0.066-0.045-0.134-0.082-0.204-0.107
	c-0.068-0.031-0.14-0.066-0.211-0.08c-0.143-0.052-0.297-0.081-0.456-0.09c-0.159-0.008-0.331-0.005-0.509,0.024
	c-0.175,0.024-0.357,0.075-0.544,0.133c-0.189,0.058-0.373,0.138-0.563,0.228c-0.189,0.086-0.377,0.189-0.563,0.299
	c-0.384,0.211-0.744,0.473-1.111,0.744S1078.47,34.778,1078.106,35.088z"/>
<path fill="#BBBDBF" d="M764.589,86.731c0.21-0.314,0.464-0.592,0.741-0.851c0.275-0.26,0.584-0.485,0.917-0.699
	c0.339-0.204,0.711-0.377,1.124-0.487c0.21-0.06,0.428-0.096,0.662-0.109c0.229-0.017,0.474-0.01,0.717,0.04
	c0.245,0.042,0.492,0.122,0.725,0.232c0.231,0.113,0.454,0.256,0.641,0.422c0.199,0.163,0.357,0.348,0.506,0.539
	c0.14,0.192,0.27,0.389,0.367,0.587c0.119,0.2,0.183,0.401,0.271,0.603c0.07,0.201,0.129,0.4,0.191,0.602
	c0.095,0.397,0.164,0.791,0.21,1.182l-1.697-0.797c0.21-0.13,0.362-0.214,0.544-0.309c0.176-0.089,0.351-0.179,0.536-0.253
	c0.362-0.148,0.738-0.287,1.135-0.377c0.784-0.182,1.684-0.245,2.563,0.065c0.217,0.072,0.428,0.181,0.623,0.303
	c0.197,0.121,0.375,0.27,0.534,0.428c0.159,0.163,0.296,0.333,0.405,0.517c0.107,0.184,0.212,0.367,0.275,0.559
	c0.074,0.19,0.125,0.381,0.164,0.571c0.051,0.188,0.064,0.378,0.084,0.566c0.011,0.189,0.01,0.374,0.008,0.558
	c-0.021,0.187-0.035,0.369-0.064,0.548c-0.177-0.323-0.338-0.635-0.52-0.926c-0.104-0.136-0.176-0.287-0.28-0.41
	c-0.097-0.131-0.199-0.252-0.309-0.358c-0.103-0.114-0.212-0.206-0.323-0.292c-0.114-0.083-0.222-0.156-0.336-0.212
	c-0.23-0.109-0.458-0.17-0.696-0.188c-0.475-0.04-1.01,0.071-1.554,0.266c-0.271,0.104-0.547,0.213-0.816,0.353l-0.401,0.208
	c-0.125,0.068-0.272,0.158-0.359,0.215l-1.481,0.996l-0.214-1.794c-0.04-0.315-0.08-0.624-0.143-0.919
	c-0.062-0.289-0.135-0.571-0.233-0.811c-0.043-0.128-0.098-0.235-0.152-0.342c-0.061-0.095-0.111-0.199-0.18-0.276
	c-0.061-0.086-0.13-0.153-0.207-0.215c-0.074-0.068-0.159-0.124-0.26-0.168c-0.392-0.199-1.021-0.213-1.668-0.106
	c-0.329,0.042-0.663,0.131-1.007,0.221C765.29,86.503,764.948,86.614,764.589,86.731z"/>
<path fill="#26A9E0" d="M831.19,77.492c-0.322-0.325-0.639-0.638-0.967-0.929c-0.326-0.292-0.65-0.572-0.999-0.806
	c-0.667-0.483-1.401-0.833-1.979-0.812c-0.143,0-0.279,0.024-0.403,0.066c-0.13,0.038-0.257,0.088-0.374,0.166
	c-0.064,0.03-0.124,0.074-0.186,0.125c-0.059,0.047-0.124,0.081-0.183,0.142l-0.179,0.164l-0.174,0.197
	c-0.117,0.122-0.223,0.283-0.338,0.421l-0.313,0.48c-0.209,0.328-0.392,0.688-0.577,1.05l-0.877,1.707l-1.029-1.598
	c-0.08-0.122-0.204-0.298-0.315-0.444c-0.116-0.154-0.242-0.301-0.362-0.45c-0.246-0.296-0.513-0.568-0.78-0.824
	c-0.543-0.504-1.13-0.908-1.729-1.067c-0.15-0.04-0.301-0.068-0.455-0.074c-0.154-0.012-0.308,0.005-0.474,0.028
	c-0.162,0.022-0.321,0.08-0.494,0.136c-0.163,0.073-0.336,0.142-0.499,0.245c-0.171,0.09-0.333,0.207-0.498,0.326
	c-0.167,0.115-0.313,0.264-0.482,0.391l-0.468,0.439c-0.152,0.153-0.3,0.313-0.464,0.467c0.052-0.214,0.124-0.425,0.188-0.644
	c0.081-0.207,0.172-0.415,0.265-0.624c0.105-0.203,0.208-0.408,0.343-0.601c0.129-0.193,0.263-0.39,0.428-0.569
	c0.151-0.191,0.349-0.348,0.543-0.515c0.205-0.153,0.426-0.293,0.672-0.406c0.245-0.113,0.508-0.202,0.78-0.249
	c0.274-0.052,0.561-0.075,0.833-0.053c0.277,0.013,0.549,0.06,0.809,0.129c0.263,0.063,0.512,0.16,0.745,0.267
	c0.239,0.104,0.465,0.223,0.677,0.357c0.215,0.132,0.415,0.275,0.609,0.424c0.393,0.296,0.738,0.633,1.067,0.978
	c0.163,0.171,0.313,0.355,0.461,0.54c0.155,0.191,0.284,0.364,0.444,0.6l-1.909,0.11c0.221-0.426,0.455-0.846,0.724-1.26
	c0.142-0.206,0.297-0.405,0.449-0.606c0.177-0.192,0.325-0.394,0.529-0.575l0.304-0.27l0.335-0.25
	c0.23-0.159,0.482-0.309,0.769-0.413c0.55-0.232,1.211-0.306,1.798-0.185c0.297,0.052,0.576,0.149,0.82,0.275
	c0.256,0.12,0.484,0.262,0.685,0.425c0.21,0.157,0.396,0.327,0.566,0.507c0.171,0.179,0.325,0.365,0.471,0.558
	c0.275,0.392,0.522,0.79,0.721,1.208C830.914,76.616,831.085,77.045,831.19,77.492z"/>
<path fill="#5D7F39" d="M-226.042,128.878c0,0,363.791,10.646,521.232,25.072c99.255,9.096,314.896,17.61,441.778,12.814
	c154.957-5.856,458.498-8.647,458.498-8.647s-122.741-4.724-284.117-3.16c-161.375,1.565-220.546,11.092-372.749,6.053
	c-152.203-5.039-339.957-20.479-469.098-26.098C-59.64,129.293-226.042,128.878-226.042,128.878L-226.042,128.878z"/>
<path fill="#E5C851" d="M877.64,223.4l-30.636,2.631l-35.137,14.152c0,0-24.623,14.232-15.224,28.872
	c9.399,14.639,30.422,22.389,30.422,22.389s-15.337-34.912,1.25-43.175C855.757,234.598,877.64,223.4,877.64,223.4z"/>
<path fill="#F9F9F9" d="M538.457,28.611c-1.034-8.41-15.566-31.396-21.077-27.392c-5.51,4.007-11.931,4.654,2.146,20.26
	C533.604,37.086,539.771,39.289,538.457,28.611z"/>
<path fill="#F9F9F9" d="M404.767,37.349c-0.314-14.316,19.856-44.275,38.057-24.538C461.027,32.549,405.132,54.039,404.767,37.349z"
	/>
<path fill="#F9F9F9" d="M824.492,89.789c14.674-0.918,39.487,10.845,17.574,12.636C820.152,104.218,809.82,90.707,824.492,89.789z"
	/>
<path fill="#F9F9F9" d="M892.706-0.605c4.299-1.452,20.713,5.094,8.186,8.84C888.367,11.985,882.672,2.782,892.706-0.605z"/>
<ellipse transform="matrix(0.029 -0.9996 0.9996 0.029 224.5914 531.9916)" fill="#5D7F39" cx="386.117" cy="150.396" rx="6.695" ry="2.696"/>
<path fill="#FFFFFF" d="M177.505,15.565C162.503-4.884,133.183-1.199,90.039-2.451C46.896-3.702,39.345,3.797,39.345,3.797
	s-4.044-29.104-67.341-9.714c-63.295,19.39-76.049,37.758-76.049,37.758s-5.85-22.983-47.769-10.348
	c-41.916,12.635-55.65,36.677,25.591,44.738c81.237,8.059,247.949,18.597,254.379-6.473
	C128.156,59.76,224.531,79.663,177.505,15.565z"/>
<path fill="#8BB1B2" d="M229.113,39.381c-0.173-0.598-0.429-1.169-0.722-1.724c-0.296-0.556-0.654-1.08-1.058-1.592
	c-0.412-0.501-0.886-0.975-1.459-1.378c-0.283-0.207-0.594-0.385-0.932-0.535c-0.335-0.155-0.703-0.28-1.09-0.347
	c-0.383-0.073-0.792-0.099-1.196-0.065c-0.204,0.007-0.401,0.05-0.601,0.093c-0.201,0.037-0.392,0.093-0.578,0.167
	c-0.385,0.12-0.724,0.307-1.053,0.503c-0.318,0.206-0.626,0.422-0.891,0.663c-0.292,0.229-0.507,0.498-0.757,0.752
	c-0.226,0.262-0.436,0.529-0.645,0.799c-0.184,0.277-0.375,0.554-0.551,0.833l-0.489,0.85l2.442-0.147
	c-0.226-0.312-0.413-0.539-0.631-0.794c-0.214-0.245-0.426-0.486-0.66-0.711c-0.464-0.456-0.952-0.892-1.498-1.276
	c-0.541-0.384-1.127-0.734-1.774-0.997c-0.322-0.132-0.656-0.254-1.008-0.332c-0.344-0.088-0.71-0.143-1.078-0.159
	c-0.365-0.027-0.739,0.003-1.1,0.063c-0.365,0.055-0.718,0.164-1.051,0.299l-0.484,0.227l-0.444,0.281
	c-0.275,0.206-0.551,0.41-0.773,0.655c-0.233,0.236-0.438,0.487-0.622,0.747c-0.203,0.248-0.35,0.527-0.508,0.797
	c-0.145,0.274-0.272,0.556-0.401,0.831c-0.101,0.292-0.208,0.575-0.294,0.865c0.227-0.206,0.437-0.418,0.65-0.623
	c0.224-0.195,0.434-0.397,0.657-0.579c0.237-0.165,0.435-0.366,0.674-0.512c0.225-0.162,0.456-0.305,0.695-0.42
	c0.229-0.132,0.469-0.222,0.7-0.308l0.348-0.109l0.345-0.066c0.46-0.059,0.901-0.036,1.336,0.074
	c0.863,0.215,1.698,0.743,2.476,1.406c0.386,0.338,0.767,0.697,1.117,1.09c0.175,0.194,0.354,0.39,0.522,0.595
	c0.163,0.193,0.34,0.427,0.454,0.59l1.313,1.886l1.13-2.035l0.399-0.717l0.428-0.679c0.294-0.434,0.605-0.849,0.94-1.184
	c0.161-0.183,0.333-0.326,0.508-0.469c0.178-0.123,0.349-0.261,0.531-0.342c0.09-0.055,0.179-0.099,0.272-0.126
	c0.093-0.038,0.187-0.074,0.283-0.09c0.19-0.056,0.388-0.084,0.598-0.081c0.211-0.001,0.433,0.019,0.662,0.07
	c0.228,0.044,0.462,0.122,0.701,0.216c0.24,0.087,0.477,0.207,0.714,0.337c0.242,0.125,0.479,0.274,0.712,0.431
	c0.481,0.303,0.934,0.673,1.391,1.053C228.224,38.541,228.664,38.951,229.113,39.381z"/>
<path fill="#F9F9F9" d="M-40.531,24.4c1.982-10.875,22.644-39.711,29.518-34.077c6.874,5.635,15.186,6.963-4.325,26.221
	C-34.853,35.802-43.048,38.206-40.531,24.4z"/>
<path fill="#F9F9F9" d="M170.646,48.635c1.491-18.619-22.508-59.157-47.703-34.832C97.75,38.129,168.91,70.339,170.646,48.635z"/>
<path fill="#8BB1B2" d="M-93.177,55.374c-0.238-0.82-0.587-1.602-0.989-2.362c-0.405-0.76-0.895-1.478-1.447-2.18
	c-0.563-0.685-1.211-1.333-1.996-1.886c-0.386-0.281-0.813-0.526-1.277-0.732c-0.46-0.211-0.963-0.384-1.493-0.475
	c-0.525-0.1-1.084-0.134-1.636-0.089c-0.281,0.011-0.548,0.067-0.823,0.127c-0.274,0.05-0.536,0.126-0.792,0.226
	c-0.525,0.165-0.99,0.421-1.442,0.689c-0.436,0.281-0.855,0.579-1.22,0.909c-0.4,0.313-0.694,0.68-1.035,1.028
	c-0.311,0.357-0.597,0.725-0.884,1.092c-0.251,0.38-0.515,0.759-0.755,1.142l-0.669,1.163l3.344-0.202
	c-0.313-0.428-0.567-0.738-0.864-1.085c-0.295-0.337-0.584-0.667-0.905-0.977c-0.634-0.621-1.302-1.22-2.05-1.745
	c-0.742-0.526-1.543-1.006-2.43-1.365c-0.439-0.182-0.896-0.349-1.377-0.455c-0.472-0.12-0.972-0.195-1.473-0.218
	c-0.501-0.037-1.014,0.004-1.51,0.087c-0.498,0.075-0.983,0.224-1.439,0.409l-0.664,0.31l-0.604,0.387
	c-0.379,0.282-0.755,0.562-1.06,0.897c-0.32,0.323-0.599,0.666-0.854,1.023c-0.275,0.339-0.478,0.721-0.695,1.088
	c-0.198,0.377-0.372,0.763-0.547,1.139c-0.138,0.397-0.285,0.786-0.405,1.185c0.311-0.284,0.598-0.572,0.891-0.853
	c0.305-0.267,0.594-0.544,0.897-0.794c0.326-0.225,0.596-0.502,0.923-0.699c0.31-0.221,0.626-0.416,0.952-0.576
	c0.313-0.179,0.642-0.303,0.959-0.421l0.476-0.149l0.474-0.088c0.629-0.081,1.234-0.05,1.827,0.1
	c1.184,0.294,2.327,1.017,3.391,1.925c0.527,0.461,1.047,0.953,1.53,1.491c0.239,0.266,0.483,0.536,0.712,0.815
	c0.223,0.265,0.466,0.583,0.622,0.808l1.798,2.582l1.545-2.784l0.546-0.982l0.589-0.928c0.401-0.595,0.826-1.162,1.286-1.622
	c0.22-0.25,0.457-0.446,0.698-0.644c0.241-0.167,0.478-0.356,0.725-0.468c0.123-0.075,0.247-0.134,0.374-0.174
	c0.126-0.05,0.255-0.102,0.387-0.123c0.259-0.076,0.531-0.114,0.82-0.11c0.287-0.001,0.59,0.024,0.903,0.096
	c0.313,0.06,0.634,0.166,0.961,0.294c0.328,0.12,0.652,0.283,0.978,0.46c0.332,0.173,0.655,0.376,0.976,0.592
	c0.66,0.417,1.277,0.921,1.905,1.442C-94.395,54.22-93.79,54.781-93.177,55.374z"/>
<path fill="#FFFFFF" d="M1538.866,51.505c3.792-11.326,12.105-19.8,24.815-14.828c12.708,4.976,16.671,16.03,16.671,16.03
	s1.247-8.976,17.361-7.744c16.113,1.232,15.895,8.708,15.895,8.708s18.203-13.966,24.182-4.245
	c5.979,9.727,10.223,22.513-22.458,24.444C1582.649,75.806,1529.123,80.584,1538.866,51.505z"/>
<path fill="#26A9E0" d="M1011.312,64.108c0.252-0.707,0.598-1.374,0.992-2.021c0.389-0.646,0.854-1.248,1.375-1.835
	c0.527-0.574,1.132-1.108,1.846-1.553c0.356-0.228,0.743-0.422,1.157-0.579c0.414-0.161,0.862-0.288,1.331-0.338
	c0.471-0.063,0.963-0.065,1.439,0.005c0.25,0.022,0.48,0.085,0.715,0.151c0.244,0.058,0.467,0.139,0.685,0.237
	c0.454,0.174,0.847,0.422,1.229,0.678c0.367,0.27,0.718,0.551,1.023,0.86c0.339,0.296,0.573,0.632,0.854,0.954
	c0.256,0.33,0.489,0.668,0.722,1.006c0.202,0.345,0.413,0.691,0.601,1.039l0.528,1.054l-2.923-0.347
	c0.297-0.36,0.538-0.621,0.815-0.91c0.272-0.278,0.546-0.555,0.843-0.81c0.591-0.512,1.204-1.004,1.885-1.427
	c0.681-0.421,1.408-0.805,2.203-1.072c0.396-0.136,0.801-0.259,1.23-0.329c0.421-0.08,0.865-0.12,1.305-0.115
	c0.438-0.008,0.885,0.055,1.317,0.152c0.434,0.09,0.853,0.247,1.239,0.433l0.568,0.308l0.511,0.366
	c0.317,0.268,0.632,0.532,0.882,0.842c0.267,0.298,0.492,0.614,0.699,0.938c0.225,0.313,0.383,0.658,0.555,0.989
	c0.154,0.341,0.284,0.69,0.416,1.028c0.105,0.357,0.217,0.705,0.301,1.06c-0.263-0.263-0.495-0.535-0.74-0.794
	c-0.254-0.249-0.492-0.505-0.748-0.74c-0.273-0.215-0.498-0.471-0.773-0.662c-0.257-0.208-0.527-0.395-0.805-0.551
	c-0.269-0.174-0.547-0.299-0.822-0.42l-0.408-0.154l-0.408-0.104c-0.551-0.105-1.083-0.103-1.607-0.002
	c-1.054,0.199-2.096,0.771-3.073,1.514c-0.485,0.377-0.967,0.781-1.416,1.229c-0.226,0.223-0.452,0.447-0.667,0.678
	c-0.21,0.221-0.438,0.488-0.588,0.678l-1.709,2.172l-1.214-2.52l-0.429-0.89l-0.469-0.846c-0.322-0.538-0.663-1.06-1.041-1.484
	c-0.187-0.232-0.381-0.417-0.58-0.602c-0.205-0.159-0.4-0.337-0.614-0.449c-0.103-0.07-0.211-0.128-0.32-0.168
	c-0.105-0.049-0.217-0.103-0.33-0.127c-0.223-0.081-0.466-0.126-0.717-0.139c-0.251-0.015-0.521-0.011-0.796,0.037
	c-0.278,0.037-0.566,0.117-0.856,0.21c-0.297,0.09-0.585,0.216-0.885,0.354c-0.297,0.135-0.59,0.297-0.883,0.47
	c-0.6,0.331-1.167,0.74-1.746,1.165C1012.439,63.158,1011.882,63.621,1011.312,64.108z"/>
<g>
	<g>
		<path fill="#E5C851" d="M474.943,403.01c0,0,210.509-5.352,327.041-4.246c116.529,1.104,192.716,14.393,152.938,66.311
			c0,0,26.561-44.217-96.061-44.217C736.246,420.856,534.544,421.067,474.943,403.01z"/>
		<g>
			<path fill="#F2F2F2" d="M725.588,466.958c1.928-9.566-0.85-23.56,3.731-35.185c4.581-11.626-3.689-30.151-1.417-57.26
				c2.271-27.109,6.681-43.46,3.914-53.544c-2.767-10.083-9.775-53.088-2.523-78.255c7.25-25.17-9.387-31.865,15.791-28.419
				c25.178,3.444,12.794,14.323,40.194,5.821c27.399-8.5,31.45,0.344,48.417-2.874c16.967-3.217,32.604-24.691,64.108-20.23
				c31.504,4.462,73.409,36.698,108.603,34.245c0,0,20.559-27.534,41.89-28.042c21.332-0.51,25.235-5.012,25.235-5.012
				s-0.314,6.587-6.606,9.881l15.28-3.714l-3.752,7.56c0,0,11.814,4.138,22.398,0.579c10.584-3.559,12.854,3.788,12.854,3.788
				s-0.793-23.045,27.413-23.622c28.207-0.577,36.414,13.772,24.618,31.471c-11.796,17.7-17.075,18.088-41.742,13.363
				c0,0,3.593,14.24,3.202,23.845c0,0,5.639,16.83,17.416,18.32c11.777,1.488,13.099,4.287,13.099,4.287
				s26.551,26.656,19.569,39.253c-6.98,12.595-9.244,21.463-24.912,26.869c-15.668,5.409-19.449,5.639-29.197,10.513
				c-9.749,4.875-49.655,15.925-75.999,2.752c0,0-7.924,10.204-16.791,15.669c-8.865,5.466-24.979,11.727-26.365,22.718
				c-1.388,10.99-7.667,16.831-1.24,32.394c6.427,15.564,15.274,38.301,15.274,38.301L725.588,466.958z"/>
			<path fill="#2B343A" d="M863.87,218.454c4.359-10.118,24.776-16.302,39.041-8.794s25.713-2.07,46.295,6.394
				s29.746,15.284,45.031,18.711c15.286,3.426,16.037,4.081,28.8,0c12.764-4.082,21.022,13.252,39.042,22.228
				c18.019,8.978,52.171,15.667,50.485,29.966c-1.684,14.299-4.324,24.81,7.508,21.807c11.831-3.004,18.212,7.997,13.52,23.896
				c-4.693,15.896,3.391,29.264-15.666,33.092c-19.058,3.827-56.382,13.889-70.755-2.403c0,0-18.127-44.824-22.631-35.814
				c-4.505,9.01,5.256,19.521,2.251,31.533c-3.002,12.014,3.589,19.95,3.589,19.95s-9.341,11.2-17.853,16.959
				c-8.513,5.759-10.765,15.197-10.765,15.197s-14.763-7.059-27.526-19.071s-7.508-13.45-24.776-8.227s-21.771,0.208-25.526,12.101
				c-3.754,11.893-1.502,7.388-17.269,18.649c-15.766,11.263-12.764,0.751-24.025,7.509c-11.262,6.757-7.507,17.268-11.262,25.526
				c-3.754,8.259-2.252,16.518-2.252,16.518s-30.782,4.521-33.786-34.153c-3.003-38.673,7.508-65.702,16.518-82.22
				s21.383-37.667,7.688-63.131C845.852,259.212,855.551,237.762,863.87,218.454z"/>
			<path fill="#2B343A" d="M875.883,198.999c0,0-14.265,16.867-27.779,28.029c-13.514,11.162-21.022,11.162-22.523,28.431
				c-1.502,17.269,5.256,22.396-8.259,29.216c-13.514,6.821-15.153,9.074-11.706,34.601c3.448,25.527,21.466,24.025,10.204,42.796
				c-11.262,18.769,6.758,12.827-0.751,21.805c-7.508,8.978-9.01,2.22-21.021-23.307c-12.013-25.527-12.013-14.266-9.761-45.048
				s13.515-44.192,2.252-40.114c-11.262,4.077-15.766,19.843-18.77,37.111c-3.002,17.268,2.253,21.133-7.508,25.208
				c-9.76,4.073-14.265-18.34-12.013,0c2.253,18.338,7.508,29.6,10.512,16.837c3.003-12.764,4.505-12.014,11.262,2.252
				s16.517,32.524,14.265,39.161s7.509,11.893-6.757,11.142c-14.265-0.751-18.409-28.529-29.852-45.047
				c-11.441-16.518-19.303-20.271-14.997-34.537c4.306-14.265,8.812-27.942,3.556-46.631c-5.256-18.688-8.522-31.226-8.522-31.226
				s1.239-25.753,0-34.762c-1.239-9.01,31.571,3.538,31.571,3.538s-12.538,0.415-12.538,8.574s8.993-3.477,16.134-6.294
				c0,0-16.885,33.878,9.394,14.03c26.276-19.849,28.529-10.089,43.545-11.59C830.836,221.672,853.964,200.986,875.883,198.999z"/>
			<path fill="#2B343A" d="M1101.176,221.672c0,6.49,10.455,18.377,4.448,24.58c-6.005,6.202,8.816,19.621,26.181,24.175
				c0,0,0.632-22.435-7.812-32.918c0,0,18.42,15.602,36.439-2.745c18.019-18.348,24.776-44.625,0-46.877
				c-24.775-2.252-43.341-0.645-48.698,18.447v7.13C1111.734,213.464,1101.176,207.912,1101.176,221.672z"/>
			<path fill="#F8A893" d="M1136.284,292.138c15.742-4.136,33.799-6.925,36.009,12.203c2.209,19.131,5.93,22.97-13.846,32.854
				c-19.775,9.886-38.355,13.799-52.425,3.284c-14.069-10.512-23.077-38.499,0-44.546
				C1129.101,289.887,1124.271,295.297,1136.284,292.138z"/>
			<path fill="#E2816F" d="M1167.94,303.095c-0.823-8.22-12.206,4.918-10.608,11.675
				C1158.932,321.528,1168.971,313.375,1167.94,303.095z"/>
			<path fill="#60403C" d="M1131.697,347.799c0,0,0.827-10.247-7.742-15.256c-8.57-5.01-22.91-8.763-21.746-20.025
				c1.164-11.262,9.406-18.953,9.406-18.953s-24.76,3.938-23.259,19.704C1089.858,329.036,1098.785,350.921,1131.697,347.799z"/>
			<path fill="#562822" d="M1097.367,317.927c12.546-5.023,21.021,6.604,18.018,9.606
				C1112.383,330.538,1087.606,321.835,1097.367,317.927z"/>
			<path fill="#F2F2F2" d="M1036.552,268.612c8.344-5.077,15.017,10.708,7.508,12.291
				C1036.552,282.486,1026.042,275.009,1036.552,268.612z"/>
			<path fill="#F2F2F2" d="M1126.762,250.883c0,0-12.631,0-2.676,10.825c5.343,5.81,4.841,1.077,4.841,1.077L1126.762,250.883z"/>
			<circle fill="#1F272B" cx="1041.196" cy="271.753" r="6.145"/>
			<circle fill="#1F272B" cx="1125.604" cy="254.86" r="4.42"/>
			<path fill="#1F272B" d="M1005.019,250.71c0,0-12.3-4.786-20.039-7.788c-7.739-3.004-50.535,0.114-49.784,13.571
				c0.75,13.457,2.252,42.221,30.031,43.981c27.78,1.759,43.546-6.423,50.304-11.342c6.757-4.918-13.051-16.362-30.551-14.77
				s-12.245-17.98,5.774-13.449c18.019,4.531,12.763,17.863,20.271,13.449C1018.533,269.951,1005.019,250.71,1005.019,250.71z"/>
			<path fill="#1F272B" d="M1125.693,221.149c-0.677-5.216-5.117-11.611,7.304-14.815c12.42-3.204,25.935-0.952,20.679,3.553
				c-5.256,4.504-10.076-4.505-14.799,11.262C1134.155,236.916,1126.239,225.371,1125.693,221.149z"/>
			<path fill="#1F272B" d="M1162.598,346.72c0,0-28.574,20.886-74.307,24.613C1088.291,371.333,1129.475,353.667,1162.598,346.72z"
				/>
			<path fill="#1F272B" d="M1009.523,308.86c0,0,30.513,15.718,31.673,37.86C1041.196,346.72,1009.523,315.484,1009.523,308.86z"/>
			<path fill="#1F272B" d="M898.502,419.364c-1.596-8.265,15.672-47.253,15.672-48.03s9.76,24.538,0,38.159
				C904.413,423.112,898.502,419.364,898.502,419.364z"/>
			<path fill="#1F272B" d="M733.241,211.67c0,0,23.25-1.111,29.64,9.064C762.881,220.734,743.761,217.958,733.241,211.67z"/>
		</g>
		<path fill="#E1E0E2" d="M1073.53,198.204c0,0-7.399,10.859-20.399,13.43C1053.131,211.634,1069.93,217.203,1073.53,198.204z"/>
		<path fill="#E1E0E2" d="M1067.631,216.184l14.573-11.813C1082.204,204.371,1083.131,215.663,1067.631,216.184z"/>
		<path fill="#E1E0E2" d="M1057.677,228.496c-9.034-0.018,57-8.939,33,0s-48.102,13.773-22.801,13.106s25.178,7.565,25.178,7.565
			s-8.377-4.232-20.877-4.232s-35.58-3.451-20.29-8.476S1089.677,228.556,1057.677,228.496z"/>
		<path fill="#E1E0E2" d="M1121.184,281.118c-5.069-5.328,21.067,0,21.067,0S1128.236,288.53,1121.184,281.118z"/>
		<path fill="#1F272B" d="M1032.119,270.427c0,0,3.908-10.927,14.71-5.824C1046.829,264.603,1032.107,253.149,1032.119,270.427z"/>
		<path fill="#1F272B" d="M1120.263,249.438c0,0,1.868-5.732,6.868-2.232C1127.131,247.206,1121.395,236.67,1120.263,249.438z"/>
		<path fill="#2B343A" d="M1032.119,271.754c0,0,13.432-10.232,15.222,2.609C1047.341,274.364,1048.708,254.375,1032.119,271.754z"
			/>
		<path fill="#2B343A" d="M1119.184,253.86c0,0,6.891-7.729,9.756,4.419l1.085-4.419l-1.085-6.237
			C1128.939,247.623,1119.236,245.014,1119.184,253.86z"/>
		<path fill="#1F272B" d="M908.407,207.005c0,0,33,62.268,31,104.289s19.338,70.838-15.831,81.93S818.239,284.695,908.407,207.005z"
			/>
	</g>
	<path fill="#915F2D" d="M953.713,281.32c4.854,7.338,8.904,28.357,5.698,31.462s-24.848,3.07-25.648-3.325
		C932.961,303.062,949.18,274.467,953.713,281.32z"/>
	<circle fill="#7F4B1C" cx="949.721" cy="288.989" r="4.577"/>
	<g>
		<path fill="#7F4B1C" d="M943.319,308.129l-1.835-0.246l0.475-3.539c0.058-0.43,0.119-0.822,0.186-1.177
			c-0.131,0.122-0.29,0.247-0.478,0.374l-0.844,0.524l-0.782-1.278l2.548-1.563l1.627,0.219L943.319,308.129z"/>
		<path fill="#7F4B1C" d="M949.63,308.977l-4.853-0.651l0.159-1.189l1.854-1.432c0.532-0.425,0.882-0.717,1.049-0.876
			s0.288-0.299,0.36-0.42c0.075-0.12,0.12-0.25,0.14-0.391c0.023-0.174-0.016-0.318-0.114-0.435c-0.1-0.115-0.252-0.188-0.455-0.214
			c-0.211-0.029-0.432,0.003-0.663,0.095c-0.23,0.091-0.498,0.236-0.8,0.435l-0.836-1.295c0.386-0.262,0.704-0.443,0.956-0.545
			c0.254-0.101,0.522-0.167,0.808-0.2s0.6-0.026,0.944,0.02c0.433,0.059,0.81,0.186,1.129,0.384s0.553,0.451,0.703,0.759
			c0.15,0.306,0.201,0.636,0.154,0.985c-0.035,0.263-0.101,0.501-0.196,0.715s-0.226,0.419-0.392,0.615s-0.38,0.398-0.638,0.605
			c-0.259,0.207-0.804,0.594-1.634,1.159l-0.007,0.046l2.529,0.34L949.63,308.977z"/>
		<path fill="#7F4B1C" d="M955.591,306.383c-0.159,1.183-0.473,2.022-0.943,2.52c-0.47,0.498-1.113,0.691-1.931,0.582
			c-0.798-0.107-1.362-0.477-1.689-1.105c-0.329-0.629-0.418-1.51-0.266-2.645c0.159-1.188,0.476-2.034,0.945-2.535
			c0.472-0.502,1.116-0.698,1.933-0.588c0.796,0.106,1.357,0.477,1.688,1.107C955.656,304.352,955.744,305.24,955.591,306.383z
			 M952.56,305.976c-0.102,0.757-0.125,1.282-0.068,1.579c0.057,0.296,0.196,0.458,0.419,0.488c0.226,0.03,0.404-0.095,0.536-0.375
			c0.134-0.279,0.249-0.789,0.349-1.526c0.1-0.741,0.121-1.267,0.066-1.576s-0.193-0.479-0.416-0.51s-0.4,0.093-0.533,0.366
			S952.661,305.214,952.56,305.976z"/>
	</g>
</g>
<g>
	<g>
		<g>
			<g>
				<g>
					<g>
						<defs>
							<rect id="SVGID_1_" x="460.835" y="22.292" width="565.5" height="435.306"/>
						</defs>
						<clipPath id="SVGID_2_">
							<use xlink:href="#SVGID_1_"  overflow="visible"/>
						</clipPath>
						<g clip-path="url(#SVGID_2_)">
							<g>
								<path fill="#512E1D" d="M525.017,483.708c0,0-9.201-45.053-32.262-81.951c-23.062-36.898,14.494-57.322,30.966-102.129
									c16.475-44.803,22.401-27.014,59.962-38.875c37.554-11.857,36.895-14.494,84.996-19.764
									c48.1-5.273,54.028-23.723,63.914-26.358c9.881-2.636,19.105-28.991-9.226-13.837
									c-28.332,15.156-81.045-29.65-84.998-48.759c-3.954-19.107,21.086-36.237,50.733-36.237c29.65,0,39.536,15.814,48.1,20.426
									c8.566,4.611,10.543-11.862,14.027-17.132c3.486-5.271,3.763-4.613,1.129-9.885c-2.636-5.271-1.319-17.789,11.201-25.038
									c12.52-7.248,19.768-19.768,26.355-24.379c6.588-4.614-7.906-9.225,0-9.225s13.178,0,26.355-5.93
									c13.178-5.93,31.627,0.659,47.44,5.93c15.814,5.27,20.427,16.471,25.039,15.813c4.611-0.658,1.316-15.813,4.611-5.93
									c3.296,9.884,13.84,8.565,22.403,19.768c8.567,11.199-0.658,17.789-3.953,25.695c-3.293,7.908,10.543,19.109,14.498,21.085
									c3.952,1.977,36.896-40.852,76.432-22.402c39.535,18.448-11.202,49.418-25.039,63.255
									c-13.835,13.837-27.016,19.767-40.85,14.497c-13.838-5.271-17.133-7.908-21.086-5.271
									c-3.953,2.636-8.564,22.402-0.658,75.115c7.906,52.711-4.612,39.535-3.624,74.455c0.987,34.92,9.555,25.037,8.236,63.254
									c-1.318,38.215-7.477,61.139-16.473,65.23C743.793,527.61,525.017,483.708,525.017,483.708z"/>
								<path fill="#F2F2F2" d="M775.473,68.356c5.269-5.929,2.313-22.402,2.313-22.402l9.887,1.316c0,0-10.543-8.564-1.978-5.271
									c8.565,3.294,21.044,6.383,34.535-0.623c13.487-7.006,27.33,4.066,29.648,0.919c2.317-3.148,9.225,2.34,18.194,8.27
									c8.974,5.931,14.091,10.543,19.36,10.543c5.271,0,0.66-10.543,0.66-10.543s11.253,7.871,15.266,13.836
									c4.014,5.966,9.078,0.66,16.404,20.532c7.328,19.873-7.949,20.979-7.949,20.979c3.952-9.883,1.315-13.836-12.521-13.836
									s-30.969,18.45-38.874,29.65c-7.908,11.201-3.955,23.062-15.156,48.759c-11.201,25.697,0,13.178-6.589,36.24
									c-6.589,23.063,7.248,15.815,9.884,38.875c2.635,23.061,30.969,31.629,40.193,49.416
									c9.226,17.791,9.884,40.195-5.271,50.078c-15.153,9.885-11.2,5.932-33.604,17.791c-22.402,11.861-49.416-1.316-61.936-8.566
									c-12.52-7.248-7.908,3.295-17.134-7.248s-7.905-48.76,3.294-67.965c11.204-19.207,19.11-53.275,25.698-74.359
									c6.589-21.084,3.293-32.284-5.271-48.758c-8.567-16.471-18.449-40.852-23.722-52.053c-5.269-11.202-17.729-8.54-17.729-8.54
									C753.793,81.585,770.198,74.286,775.473,68.356z"/>
								<path fill="#F2F2F2" d="M655.94,242.461c-2.86,19.557-7.681,40.691,7.476,28.832c15.152-11.859,31.626-16.473,25.696-5.93
									c-5.932,10.541-15.813,38.215-3.954,23.719c11.858-14.494,7.248,5.932,5.271,24.379
									c-1.977,18.449-7.249,54.689-16.476,66.551c-9.223,11.859-17.13,9.885-11.859,30.969
									c5.272,21.086-21.083,34.262-44.143,55.346c-23.066,21.086-10.546,10.543-34.264,14.498
									c-23.723,3.953,10.543-144.957-28.993-92.244c-39.535,52.711-14.495-12.52-17.132-46.123
									c-2.636-33.605-12.727-45.793-12.727-45.793c-2.826,7.016-25.436,35.012-37.351,60.33
									c-26.647,76.871-10.577,134.539-14.751,128.182c16.472,25.094,33.937,10.824,47.114,14.779
									c13.18,3.953,89.521,14.822,170.726,11.84c81.204-2.988,116.478-17.133,184.346-41.354
									c85.886,73.098,43.747-56.281,45.128-73.314s-6.254-0.639-18.113,26.375c-11.862,27.016-5.932,5.93-9.885-19.107
									c-3.954-25.039-17.131,31.627-15.155,45.465c1.977,13.836-8.564,9.881-27.015,1.316c-18.451-8.564-5.93,1.318-9.226,15.152
									c-3.293,13.84-3.952-10.541-34.263-24.377c-30.31-13.836-19.106-17.129-35.582-45.463
									c-16.47-28.336-16.47,2.635-13.836,21.084c2.636,18.449-22.403,13.838-38.216,23.721
									c-15.815,9.883-24.38,30.967-24.38,15.154s-8.565-10.543,0-26.355c8.565-15.814,10.54-69.188,13.628-85
									c3.085-15.813,14.045-8.564,12.069-21.742c-1.977-13.178-1.32-10.543,4.611-17.791c5.93-7.248,11.858-12.518,6.298-26.453
									c-5.562-13.936-21.453,19.863-22.772,0c-1.318-19.867,3.294-24.943,23.063-48.662
									c19.765-23.719,19.328-11.313,13.835-23.719c-1.986-4.488-2.8-5.74-2.8-5.74
									C713.077,217.848,655.933,242.463,655.94,242.461z"/>
								<path fill="#F2F2F2" d="M728.26,243.377c-11.198,9.227-7.905,16.475,9.884,14.498c17.788-1.979,21.741,8.564,21.741,8.564
									c-2.632-5.273-5.268-30.311-7.903-37.559C751.981,228.881,739.463,234.153,728.26,243.377z"/>
								<path fill="#F2F2F2" d="M619.262,394.512c-11.862,15.152-8.565-7.25-5.932-26.871c2.638-19.623,0.662-8.711,5.274-29.137
									c4.609-20.426,10.062-16.697,17.131-11.861C648.254,335.209,631.124,379.356,619.262,394.512z"/>
								<path fill="#F2F2F2" d="M758.948,177.732c-8.566-5.269,0.227-19.696,11.201-15.154
									C789.258,170.484,767.515,183.004,758.948,177.732z"/>
								<path fill="#F2F2F2" d="M881.505,167.189c-2.636-13.836,28.82-15.589,20.426,0
									C897.317,175.756,884.139,181.027,881.505,167.189z"/>
								<path fill="#F8A893" d="M872.279,299.629c5.297,14.965,10.542,36.898-4.209,48.758c-14.747,11.859-34.01,9.227-71.565,5.271
									c-37.557-3.953-18.449-16.471-18.722-30.816c-0.27-14.348-4.341-20.578,0-41.004c4.34-20.428,53.644-16.473,72.093-11.199
									C868.325,275.911,865.69,290.405,872.279,299.629"/>
								<path fill="#E2816F" d="M786.487,322.84c8.933,4.727,10.02-2.785,8.699-11.143c-1.316-8.357-14.021-32.188-17.403-23.27
									C772.12,303.372,777.555,318.116,786.487,322.84z"/>
								<path fill="#E2816F" d="M857.25,323.834c-7.192,11.199-15.211-5.271-17.845-12.037
									c-2.637-6.768,13.285-33.582,17.845-29.648C868.509,291.86,864.442,312.631,857.25,323.834z"/>
								<circle fill="#351E13" cx="894.916" cy="163.553" r="6.964"/>
								<path fill="#351E13" d="M769.354,162.511c3.846,0,6.962,3.118,6.962,6.964c0,3.844-3.116,6.965-6.962,6.965
									c-3.849,0-6.965-3.121-6.965-6.965C762.389,165.628,765.505,162.511,769.354,162.511z"/>
								<path fill="#351E13" d="M660.115,140.174c-15.814-17.131,22.4-3.293,47.438,0c25.04,3.296,27.071,26.282,15.155,35.531
									C701.418,192.229,675.928,157.305,660.115,140.174z"/>
								<path fill="#351E13" d="M1000.106,138.936c15.815-9.147-5.27-18.527-27.674-17.21c-22.402,1.317-40.062,13.935-37.559,34.42
									C939.487,193.859,984.293,148.082,1000.106,138.936z"/>
								<path fill="#351E13" d="M762.67,288.885c-1.446-20.512-20.358-87.9-20.358-87.9
									C768.692,222.817,762.67,288.885,762.67,288.885z"/>
							</g>
							<path fill="#E1E0E2" d="M784.694,69.304c7.692-5.131,8.337-5.131,8.337-5.131s0-8.979-7.697-12.827
								C785.334,51.346,776.998,74.435,784.694,69.304z"/>
							<path fill="#E1E0E2" d="M823.817,57.119c-7.057-5.132-24.64,0.747-18.602-1.925C834.964,42.034,830.871,62.25,823.817,57.119
								z"/>
							<path fill="#E1E0E2" d="M800.729,82.773c12.184-1.926,10.26,20.523,5.129,10.261c-5.129-10.262-18.599,21.807-17.316,10.903
								c1.282-10.903-28.159-25.296-13.47-20.523C800.729,91.751,788.542,84.697,800.729,82.773z"/>
							<path fill="#E1E0E2" d="M885.386,68.022c5.772-9.621-25.654-9.621-17.958-5.772
								C880.255,68.663,879.615,77.642,885.386,68.022z"/>
							<path fill="#E1E0E2" d="M906.551,84.697c11.544-1.924-10.621-17.276-8.979-9.621
								C899.497,84.055,895.007,86.621,906.551,84.697z"/>
							<path fill="#E1E0E2" d="M830.231,207.837c11.544,8.337,3.205,23.732-6.414,26.937c-9.62,3.207,3.207,14.111-8.338,7.055
								c-11.545-7.055-2.565-5.771,12.187-16.674c14.75-10.903-0.642-10.903-12.187-17.317s17.307-22.953,9.619-16.034
								C812.271,203.348,818.685,199.5,830.231,207.837z"/>
						</g>
					</g>
				</g>
			</g>
		</g>
		<path fill="#351E13" d="M912.128,253.827c-2.18-7.939,5.5,44.352-12,55.725C900.128,309.551,923.628,295.731,912.128,253.827z"/>
		<path fill="#351E13" d="M881.398,152.637c-3.824,1.538,17.502-4.087,22.201,5.177C903.6,157.814,905.372,142.994,881.398,152.637z
			"/>
		<path fill="#351E13" d="M752.024,169.378c0,0-1.248-16.104,13.854-11.614C765.879,157.764,759.614,158.589,752.024,169.378z"/>
	</g>
	<path fill="#E2BD47" d="M667.11,162.041c3.692,11.536,1.209,40.9-4.198,43.816c-5.407,2.916-34.07-5.209-32.744-13.983
		C631.494,183.102,663.662,151.268,667.11,162.041z"/>
	<circle fill="#CCA023" cx="659.149" cy="169.002" r="4.703"/>
	<g>
		<path fill="#CCA023" d="M648.558,185.281c0.535,0.258,0.958,0.613,1.27,1.068c0.312,0.456,0.478,0.969,0.499,1.538
			c0.021,0.569-0.111,1.151-0.397,1.746c-0.5,1.04-1.198,1.688-2.091,1.942s-1.975,0.076-3.244-0.535
			c-1.087-0.522-1.893-1.117-2.419-1.783l0.992-2.063c0.288,0.348,0.638,0.688,1.049,1.022c0.412,0.334,0.785,0.581,1.12,0.743
			c0.467,0.225,0.873,0.299,1.219,0.222c0.345-0.077,0.611-0.309,0.796-0.694c0.172-0.357,0.179-0.696,0.02-1.019
			c-0.159-0.321-0.497-0.607-1.015-0.856c-0.395-0.189-0.857-0.321-1.387-0.394l-0.703-0.902l2.716-4.747l5.31,2.556l-1.008,2.095
			l-3.17-1.525l-0.706,1.173c0.361,0.097,0.613,0.175,0.757,0.235C648.308,185.164,648.439,185.223,648.558,185.281z"/>
		<path fill="#CCA023" d="M651.375,189.302c0.625-1.299,1.316-2.261,2.075-2.887c0.758-0.626,1.591-0.956,2.499-0.989
			s1.891,0.205,2.953,0.716c0.378,0.182,0.802,0.43,1.272,0.745l-0.947,1.968c-0.386-0.285-0.827-0.548-1.323-0.786
			c-0.841-0.405-1.556-0.521-2.146-0.351c-0.59,0.172-1.104,0.666-1.545,1.484l0.076,0.036c0.729-0.538,1.517-0.604,2.361-0.196
			c0.828,0.397,1.341,0.974,1.541,1.726s0.071,1.604-0.387,2.555c-0.492,1.022-1.169,1.69-2.031,2.006
			c-0.862,0.314-1.811,0.222-2.847-0.277c-1.1-0.528-1.787-1.299-2.063-2.31C650.587,191.73,650.758,190.583,651.375,189.302z
			 M653.829,193.032c0.268,0.128,0.534,0.132,0.799,0.012c0.264-0.121,0.502-0.402,0.715-0.844c0.363-0.755,0.253-1.274-0.333-1.556
			c-0.289-0.14-0.57-0.154-0.844-0.046c-0.275,0.108-0.479,0.303-0.614,0.583c-0.196,0.407-0.271,0.783-0.222,1.128
			C653.378,192.654,653.545,192.894,653.829,193.032z"/>
	</g>
</g>
<path fill="#E1E0E2" d="M920.406,403.008l9.488,76.201l26.07,4.205C955.965,483.415,938.441,419.964,920.406,403.008z"/>
<rect x="-89.042" y="-52.731" opacity="0.1" fill="#FFDAAE" width="1899.509" height="536.146"/>
</svg>
